<svg xmlns="http://www.w3.org/2000/svg" xmlns:xlink="http://www.w3.org/1999/xlink" width="500" zoomAndPan="magnify" viewBox="0 0 375 374.999991" height="500" preserveAspectRatio="xMidYMid meet" version="1.0"><defs><g/><clipPath id="49857ee7a0"><path d="M 112.5 50.316406 L 262.5 50.316406 L 262.5 187.566406 L 112.5 187.566406 Z M 112.5 50.316406 " clip-rule="nonzero"/></clipPath></defs><rect x="-37.5" width="450" fill="#ffffff" y="-37.499999" height="449.999989" fill-opacity="1"/><rect x="-37.5" width="450" fill="#ffffff" y="-37.499999" height="449.999989" fill-opacity="1"/><g clip-path="url(#49857ee7a0)"><path fill="#ffffff" d="M 138.511719 187.484375 L 138.511719 174.457031 L 125.519531 174.457031 L 125.519531 161.429688 L 119.011719 161.429688 L 119.011719 148.433594 L 112.5 148.433594 L 112.5 102.480469 L 119.011719 102.480469 L 119.011719 89.453125 L 145.410156 89.453125 L 145.410156 102.480469 L 158.039062 102.480469 L 158.039062 76.425781 L 164.519531 76.425781 L 164.519531 63.429688 L 171.03125 63.429688 L 171.03125 50.402344 L 229.980469 50.402344 L 229.980469 63.429688 L 243 63.429688 L 243 76.425781 L 249.480469 76.425781 L 249.480469 89.453125 L 262.5 89.453125 L 262.5 109.382812 L 255.988281 109.382812 L 255.988281 122.410156 L 243 122.410156 L 243 148.433594 L 236.488281 148.433594 L 236.488281 161.429688 L 229.980469 161.429688 L 229.980469 174.457031 L 216.960938 174.457031 L 216.960938 187.484375 Z M 138.511719 187.484375 " fill-opacity="1" fill-rule="nonzero"/></g><path fill="#000000" d="M 259.050781 92.90625 L 259.050781 105.929688 L 252.539062 105.929688 L 252.539062 118.957031 L 239.550781 118.957031 L 239.550781 144.980469 L 233.039062 144.980469 L 233.039062 157.976562 L 226.53125 157.976562 L 226.53125 171.003906 L 213.511719 171.003906 L 213.511719 184.03125 L 141.960938 184.03125 L 141.960938 171.003906 L 128.96875 171.003906 L 128.96875 158.007812 L 122.460938 158.007812 L 122.460938 144.980469 L 115.949219 144.980469 L 115.949219 105.929688 L 122.460938 105.929688 L 122.460938 92.90625 L 141.960938 92.90625 L 141.960938 105.929688 L 161.488281 105.929688 L 161.488281 79.878906 L 167.96875 79.878906 L 167.96875 66.882812 L 174.480469 66.882812 L 174.480469 53.855469 L 226.53125 53.855469 L 226.53125 66.882812 L 239.550781 66.882812 L 239.550781 79.878906 L 246.058594 79.878906 L 246.058594 92.90625 Z M 259.050781 92.90625 " fill-opacity="1" fill-rule="nonzero"/><path fill="#f77339" d="M 233.039062 92.90625 L 246.058594 92.90625 L 246.058594 105.929688 L 233.039062 105.929688 Z M 233.039062 92.90625 " fill-opacity="1" fill-rule="nonzero"/><path fill="#fbd502" d="M 226.53125 79.878906 L 226.53125 66.882812 L 180.988281 66.882812 L 180.988281 79.878906 L 174.480469 79.878906 L 174.480469 105.929688 L 180.988281 105.929688 L 180.988281 118.957031 L 141.960938 118.957031 L 141.960938 105.929688 L 128.96875 105.929688 L 128.96875 144.953125 L 135.480469 144.953125 L 135.511719 144.980469 L 135.449219 144.980469 L 135.449219 158.007812 L 141.960938 158.007812 L 141.960938 171.003906 L 213.511719 171.003906 L 213.511719 158.789062 L 213.871094 158.007812 L 220.019531 158.007812 L 220.019531 144.953125 L 226.53125 144.953125 L 226.53125 118.957031 L 220.019531 118.957031 L 220.019531 105.929688 L 233.039062 105.929688 L 233.039062 79.878906 Z M 220.019531 92.90625 L 213.511719 92.90625 L 213.511719 79.90625 L 220.019531 79.90625 Z M 220.019531 92.90625 " fill-opacity="1" fill-rule="nonzero"/><g fill="#000000" fill-opacity="1"><g transform="translate(67.13666, 216.762115)"><g><path d="M 8.292969 1.566406 L -1.726562 1.566406 L 2.570312 -18.632812 L 16.886719 -18.632812 C 19.332031 -18.632812 21.277344 -18.351562 22.714844 -17.792969 C 24.339844 -17.15625 25.460938 -16.238281 26.078125 -15.039062 C 26.679688 -13.859375 26.832031 -12.539062 26.527344 -11.074219 L 26.476562 -10.832031 L 26.472656 -10.808594 C 26.167969 -9.503906 25.464844 -8.367188 24.363281 -7.394531 C 23.3125 -6.464844 21.957031 -5.820312 20.300781 -5.453125 L 19.964844 -6.984375 L 21.527344 -6.984375 L 21.527344 -6.914062 L 19.964844 -6.914062 L 20.402344 -8.417969 C 21.207031 -8.179688 21.863281 -7.878906 22.363281 -7.507812 C 22.992188 -7.042969 23.425781 -6.414062 23.675781 -5.621094 C 23.867188 -5.003906 23.964844 -4.210938 23.964844 -3.238281 L 22.398438 -3.238281 L 23.960938 -3.289062 L 23.988281 -2.550781 L 23.988281 -2.527344 C 23.988281 -2.058594 24.003906 -1.671875 24.035156 -1.355469 C 24.070312 -1.027344 24.121094 -0.667969 24.191406 -0.273438 L 24.519531 1.566406 L 13.453125 1.566406 L 13.128906 0.429688 C 13.035156 0.109375 12.976562 -0.277344 12.945312 -0.734375 C 12.917969 -1.125 12.914062 -1.652344 12.929688 -2.3125 L 14.496094 -2.273438 L 12.929688 -2.273438 L 12.929688 -3.007812 C 12.929688 -3.023438 12.929688 -3.035156 12.929688 -3.035156 C 12.933594 -3.019531 12.9375 -3 12.949219 -2.980469 C 12.976562 -2.921875 13.007812 -2.878906 13.050781 -2.847656 C 13.085938 -2.824219 13.109375 -2.808594 13.121094 -2.804688 C 13.082031 -2.820312 13.023438 -2.832031 12.949219 -2.847656 C 12.71875 -2.890625 12.40625 -2.914062 12.015625 -2.914062 L 9.234375 -2.914062 L 9.234375 -4.480469 L 10.765625 -4.15625 L 9.5625 1.566406 Z M 8.292969 -1.566406 L 8.292969 0 L 6.761719 -0.320312 L 7.964844 -6.042969 L 12.015625 -6.042969 C 12.605469 -6.042969 13.113281 -6.003906 13.539062 -5.921875 C 14.105469 -5.8125 14.566406 -5.625 14.929688 -5.351562 C 15.308594 -5.070312 15.59375 -4.714844 15.789062 -4.296875 C 15.96875 -3.90625 16.0625 -3.476562 16.0625 -3.007812 L 16.0625 -2.253906 L 16.058594 -2.234375 C 16.046875 -1.671875 16.050781 -1.238281 16.070312 -0.941406 C 16.085938 -0.707031 16.109375 -0.539062 16.136719 -0.429688 L 14.632812 0 L 14.632812 -1.566406 L 22.652344 -1.566406 L 22.652344 0 L 21.109375 0.273438 C 21.027344 -0.191406 20.964844 -0.628906 20.921875 -1.03125 C 20.878906 -1.453125 20.855469 -1.953125 20.855469 -2.527344 L 22.421875 -2.527344 L 20.855469 -2.476562 L 20.832031 -3.214844 L 20.832031 -3.238281 C 20.832031 -3.890625 20.785156 -4.375 20.6875 -4.691406 C 20.640625 -4.832031 20.582031 -4.933594 20.503906 -4.988281 C 20.300781 -5.140625 19.972656 -5.28125 19.523438 -5.414062 L 18.398438 -5.742188 L 18.398438 -8.242188 L 19.628906 -8.511719 C 20.757812 -8.761719 21.644531 -9.171875 22.292969 -9.742188 C 22.894531 -10.273438 23.269531 -10.867188 23.425781 -11.523438 L 24.949219 -11.164062 L 23.414062 -11.472656 L 23.460938 -11.714844 C 23.617188 -12.453125 23.558594 -13.085938 23.292969 -13.609375 C 23.035156 -14.105469 22.464844 -14.527344 21.578125 -14.875 C 20.503906 -15.292969 18.941406 -15.503906 16.886719 -15.503906 L 3.835938 -15.503906 L 3.835938 -17.070312 L 5.367188 -16.742188 L 1.738281 0.324219 L 0.207031 0 L 0.207031 -1.566406 Z M 12.417969 -11.914062 L 11.683594 -8.511719 L 10.152344 -8.84375 L 10.152344 -10.410156 L 14.128906 -10.410156 C 14.582031 -10.410156 14.914062 -10.476562 15.117188 -10.613281 C 15.226562 -10.683594 15.289062 -10.761719 15.308594 -10.847656 L 15.351562 -11.058594 C 15.347656 -11.054688 15.347656 -11.054688 15.347656 -11.058594 C 15.347656 -11.058594 15.347656 -11.054688 15.347656 -11.046875 C 15.351562 -11.007812 15.359375 -10.964844 15.375 -10.917969 C 15.417969 -10.785156 15.488281 -10.683594 15.585938 -10.613281 C 15.597656 -10.605469 15.609375 -10.597656 15.617188 -10.589844 C 15.589844 -10.601562 15.554688 -10.613281 15.507812 -10.625 C 15.34375 -10.660156 15.128906 -10.679688 14.863281 -10.679688 L 10.890625 -10.679688 L 10.890625 -12.246094 Z M 9.625 -13.808594 L 14.863281 -13.808594 C 15.972656 -13.808594 16.832031 -13.582031 17.445312 -13.128906 C 17.882812 -12.808594 18.183594 -12.394531 18.347656 -11.890625 C 18.492188 -11.453125 18.515625 -10.96875 18.417969 -10.445312 L 18.371094 -10.195312 C 18.171875 -9.269531 17.664062 -8.535156 16.835938 -7.996094 C 16.109375 -7.519531 15.207031 -7.277344 14.128906 -7.277344 L 8.214844 -7.277344 L 9.359375 -12.574219 Z M 9.625 -13.808594 "/></g></g></g><g fill="#000000" fill-opacity="1"><g transform="translate(90.886159, 216.762115)"><g><path d="M 11.257812 2.070312 C 8.917969 2.070312 6.976562 1.871094 5.441406 1.46875 C 3.753906 1.027344 2.445312 0.339844 1.519531 -0.597656 C 0.546875 -1.578125 -0.0390625 -2.785156 -0.242188 -4.214844 C -0.417969 -5.484375 -0.335938 -6.929688 0.0078125 -8.550781 L 2.15625 -18.632812 L 13.417969 -18.632812 L 11.109375 -7.71875 C 11.03125 -7.351562 11.007812 -7.054688 11.039062 -6.835938 C 11.054688 -6.730469 11.078125 -6.660156 11.113281 -6.617188 C 11.160156 -6.566406 11.253906 -6.515625 11.390625 -6.46875 C 11.644531 -6.386719 11.984375 -6.34375 12.40625 -6.34375 C 13.203125 -6.34375 13.804688 -6.503906 14.207031 -6.828125 C 14.609375 -7.148438 14.882812 -7.648438 15.035156 -8.332031 L 17.226562 -18.632812 L 28.515625 -18.632812 L 26.203125 -7.828125 C 25.878906 -6.285156 25.382812 -4.90625 24.707031 -3.695312 C 23.996094 -2.417969 23.03125 -1.34375 21.816406 -0.472656 C 20.625 0.378906 19.144531 1.019531 17.367188 1.453125 C 15.671875 1.863281 13.632812 2.070312 11.257812 2.070312 Z M 11.257812 -1.058594 C 13.382812 -1.058594 15.175781 -1.238281 16.628906 -1.589844 C 18.011719 -1.925781 19.132812 -2.402344 19.992188 -3.019531 C 20.828125 -3.617188 21.488281 -4.351562 21.972656 -5.21875 C 22.492188 -6.152344 22.882812 -7.238281 23.140625 -8.484375 L 25.046875 -17.394531 L 26.578125 -17.070312 L 26.578125 -15.503906 L 18.492188 -15.503906 L 18.492188 -17.070312 L 20.023438 -16.742188 L 18.089844 -7.65625 C 17.78125 -6.257812 17.140625 -5.164062 16.164062 -4.382812 C 15.1875 -3.601562 13.933594 -3.214844 12.40625 -3.214844 C 10.75 -3.214844 9.53125 -3.664062 8.746094 -4.570312 C 7.933594 -5.507812 7.699219 -6.773438 8.046875 -8.363281 L 9.953125 -17.390625 L 11.484375 -17.070312 L 11.484375 -15.503906 L 3.421875 -15.503906 L 3.421875 -17.070312 L 4.953125 -16.742188 L 3.070312 -7.898438 C 2.800781 -6.640625 2.730469 -5.558594 2.859375 -4.652344 C 2.964844 -3.90625 3.257812 -3.289062 3.742188 -2.800781 C 4.269531 -2.269531 5.097656 -1.855469 6.230469 -1.558594 C 7.507812 -1.226562 9.183594 -1.058594 11.257812 -1.058594 Z M 11.257812 -1.058594 "/></g></g></g><g fill="#000000" fill-opacity="1"><g transform="translate(115.600348, 216.762115)"><g><path d="M 14.609375 1.566406 L -1.726562 1.566406 L 2.570312 -18.632812 L 17.988281 -18.632812 C 19.601562 -18.632812 21.019531 -18.480469 22.242188 -18.171875 C 23.660156 -17.816406 24.742188 -17.195312 25.496094 -16.316406 C 25.941406 -15.792969 26.230469 -15.1875 26.363281 -14.5 C 26.484375 -13.878906 26.46875 -13.203125 26.320312 -12.480469 L 26.277344 -12.257812 C 25.972656 -10.808594 25.226562 -9.683594 24.039062 -8.886719 C 22.984375 -8.179688 21.554688 -7.746094 19.757812 -7.585938 L 19.617188 -9.144531 L 21.183594 -9.144531 L 21.183594 -9.050781 L 19.617188 -9.050781 L 19.804688 -10.605469 C 21.695312 -10.378906 23.152344 -9.78125 24.175781 -8.808594 C 24.777344 -8.238281 25.179688 -7.566406 25.386719 -6.792969 C 25.585938 -6.066406 25.597656 -5.277344 25.425781 -4.425781 L 25.375 -4.175781 L 25.371094 -4.15625 C 25.011719 -2.570312 24.238281 -1.335938 23.058594 -0.457031 C 21.992188 0.339844 20.695312 0.878906 19.164062 1.171875 C 17.773438 1.433594 16.253906 1.566406 14.609375 1.566406 Z M 14.609375 -1.566406 C 16.058594 -1.566406 17.382812 -1.679688 18.582031 -1.90625 C 19.636719 -2.105469 20.507812 -2.460938 21.1875 -2.964844 C 21.75 -3.386719 22.128906 -4.015625 22.320312 -4.851562 L 23.84375 -4.503906 L 22.3125 -4.808594 L 22.355469 -5.039062 C 22.429688 -5.410156 22.433594 -5.726562 22.367188 -5.980469 C 22.308594 -6.1875 22.195312 -6.371094 22.019531 -6.539062 C 21.5 -7.035156 20.636719 -7.355469 19.433594 -7.496094 L 18.054688 -7.660156 L 18.054688 -10.574219 L 19.476562 -10.703125 C 20.746094 -10.816406 21.683594 -11.078125 22.296875 -11.488281 C 22.777344 -11.8125 23.082031 -12.273438 23.207031 -12.871094 L 23.253906 -13.109375 C 23.367188 -13.652344 23.320312 -14.042969 23.113281 -14.285156 C 22.792969 -14.660156 22.25 -14.941406 21.476562 -15.136719 C 20.507812 -15.382812 19.34375 -15.503906 17.988281 -15.503906 L 3.835938 -15.503906 L 3.835938 -17.070312 L 5.367188 -16.742188 L 1.738281 0.324219 L 0.207031 0 L 0.207031 -1.566406 Z M 12.28125 -12.195312 L 11.800781 -9.921875 L 10.269531 -10.246094 L 10.269531 -11.8125 L 14.957031 -11.8125 C 15.359375 -11.8125 15.632812 -11.84375 15.777344 -11.910156 C 15.746094 -11.894531 15.710938 -11.863281 15.664062 -11.8125 C 15.589844 -11.726562 15.539062 -11.632812 15.515625 -11.523438 L 15.523438 -11.546875 L 15.574219 -11.75 L 17.089844 -11.371094 L 15.558594 -11.679688 C 15.542969 -11.613281 15.554688 -11.53125 15.585938 -11.425781 C 15.640625 -11.246094 15.738281 -11.101562 15.878906 -10.992188 C 15.917969 -10.960938 15.957031 -10.9375 15.992188 -10.921875 C 15.996094 -10.921875 16 -10.917969 16.003906 -10.917969 C 16 -10.917969 15.992188 -10.921875 15.984375 -10.921875 C 15.894531 -10.945312 15.765625 -10.953125 15.597656 -10.953125 L 10.75 -10.953125 L 10.75 -12.519531 Z M 9.484375 -14.085938 L 15.597656 -14.085938 C 16.527344 -14.085938 17.257812 -13.882812 17.789062 -13.472656 C 18.179688 -13.171875 18.445312 -12.789062 18.582031 -12.324219 C 18.703125 -11.929688 18.714844 -11.511719 18.625 -11.0625 L 18.617188 -11.027344 L 18.5625 -10.808594 L 17.046875 -11.1875 L 18.574219 -10.851562 C 18.480469 -10.429688 18.292969 -10.058594 18.007812 -9.738281 C 17.757812 -9.453125 17.441406 -9.222656 17.0625 -9.054688 C 16.507812 -8.804688 15.808594 -8.679688 14.957031 -8.679688 L 8.335938 -8.679688 L 9.21875 -12.84375 Z M 11.128906 -6.78125 L 10.554688 -4.207031 L 9.027344 -4.546875 L 9.027344 -6.113281 L 13.785156 -6.113281 C 14.25 -6.113281 14.574219 -6.152344 14.75 -6.234375 C 14.753906 -6.238281 14.757812 -6.238281 14.757812 -6.238281 C 14.753906 -6.238281 14.75 -6.234375 14.742188 -6.230469 C 14.71875 -6.210938 14.695312 -6.1875 14.671875 -6.160156 C 14.605469 -6.082031 14.5625 -6 14.542969 -5.90625 L 14.59375 -6.140625 C 14.578125 -6.0625 14.589844 -5.964844 14.632812 -5.847656 C 14.691406 -5.691406 14.78125 -5.574219 14.902344 -5.492188 C 14.914062 -5.484375 14.925781 -5.480469 14.933594 -5.472656 L 14.933594 -5.476562 C 14.902344 -5.484375 14.863281 -5.496094 14.8125 -5.507812 C 14.648438 -5.539062 14.4375 -5.554688 14.175781 -5.554688 L 9.601562 -5.554688 L 9.601562 -7.121094 Z M 8.347656 -8.6875 L 14.175781 -8.6875 C 15.222656 -8.6875 16.039062 -8.492188 16.625 -8.105469 C 17.074219 -7.8125 17.386719 -7.425781 17.566406 -6.949219 C 17.730469 -6.507812 17.761719 -6.035156 17.660156 -5.527344 L 17.617188 -5.304688 C 17.53125 -4.859375 17.339844 -4.464844 17.050781 -4.125 C 16.789062 -3.820312 16.457031 -3.574219 16.058594 -3.390625 C 15.464844 -3.121094 14.707031 -2.984375 13.785156 -2.984375 L 7.074219 -2.984375 L 8.074219 -7.460938 Z M 8.347656 -8.6875 "/></g></g></g><g fill="#000000" fill-opacity="1"><g transform="translate(139.60251, 216.762115)"><g><path d="M 14.609375 1.566406 L -1.726562 1.566406 L 2.570312 -18.632812 L 17.988281 -18.632812 C 19.601562 -18.632812 21.019531 -18.480469 22.242188 -18.171875 C 23.660156 -17.816406 24.742188 -17.195312 25.496094 -16.316406 C 25.941406 -15.792969 26.230469 -15.1875 26.363281 -14.5 C 26.484375 -13.878906 26.46875 -13.203125 26.320312 -12.480469 L 26.277344 -12.257812 C 25.972656 -10.808594 25.226562 -9.683594 24.039062 -8.886719 C 22.984375 -8.179688 21.554688 -7.746094 19.757812 -7.585938 L 19.617188 -9.144531 L 21.183594 -9.144531 L 21.183594 -9.050781 L 19.617188 -9.050781 L 19.804688 -10.605469 C 21.695312 -10.378906 23.152344 -9.78125 24.175781 -8.808594 C 24.777344 -8.238281 25.179688 -7.566406 25.386719 -6.792969 C 25.585938 -6.066406 25.597656 -5.277344 25.425781 -4.425781 L 25.375 -4.175781 L 25.371094 -4.15625 C 25.011719 -2.570312 24.238281 -1.335938 23.058594 -0.457031 C 21.992188 0.339844 20.695312 0.878906 19.164062 1.171875 C 17.773438 1.433594 16.253906 1.566406 14.609375 1.566406 Z M 14.609375 -1.566406 C 16.058594 -1.566406 17.382812 -1.679688 18.582031 -1.90625 C 19.636719 -2.105469 20.507812 -2.460938 21.1875 -2.964844 C 21.75 -3.386719 22.128906 -4.015625 22.320312 -4.851562 L 23.84375 -4.503906 L 22.3125 -4.808594 L 22.355469 -5.039062 C 22.429688 -5.410156 22.433594 -5.726562 22.367188 -5.980469 C 22.308594 -6.1875 22.195312 -6.371094 22.019531 -6.539062 C 21.5 -7.035156 20.636719 -7.355469 19.433594 -7.496094 L 18.054688 -7.660156 L 18.054688 -10.574219 L 19.476562 -10.703125 C 20.746094 -10.816406 21.683594 -11.078125 22.296875 -11.488281 C 22.777344 -11.8125 23.082031 -12.273438 23.207031 -12.871094 L 23.253906 -13.109375 C 23.367188 -13.652344 23.320312 -14.042969 23.113281 -14.285156 C 22.792969 -14.660156 22.25 -14.941406 21.476562 -15.136719 C 20.507812 -15.382812 19.34375 -15.503906 17.988281 -15.503906 L 3.835938 -15.503906 L 3.835938 -17.070312 L 5.367188 -16.742188 L 1.738281 0.324219 L 0.207031 0 L 0.207031 -1.566406 Z M 12.28125 -12.195312 L 11.800781 -9.921875 L 10.269531 -10.246094 L 10.269531 -11.8125 L 14.957031 -11.8125 C 15.359375 -11.8125 15.632812 -11.84375 15.777344 -11.910156 C 15.746094 -11.894531 15.710938 -11.863281 15.664062 -11.8125 C 15.589844 -11.726562 15.539062 -11.632812 15.515625 -11.523438 L 15.523438 -11.546875 L 15.574219 -11.75 L 17.089844 -11.371094 L 15.558594 -11.679688 C 15.542969 -11.613281 15.554688 -11.53125 15.585938 -11.425781 C 15.640625 -11.246094 15.738281 -11.101562 15.878906 -10.992188 C 15.917969 -10.960938 15.957031 -10.9375 15.992188 -10.921875 C 15.996094 -10.921875 16 -10.917969 16.003906 -10.917969 C 16 -10.917969 15.992188 -10.921875 15.984375 -10.921875 C 15.894531 -10.945312 15.765625 -10.953125 15.597656 -10.953125 L 10.75 -10.953125 L 10.75 -12.519531 Z M 9.484375 -14.085938 L 15.597656 -14.085938 C 16.527344 -14.085938 17.257812 -13.882812 17.789062 -13.472656 C 18.179688 -13.171875 18.445312 -12.789062 18.582031 -12.324219 C 18.703125 -11.929688 18.714844 -11.511719 18.625 -11.0625 L 18.617188 -11.027344 L 18.5625 -10.808594 L 17.046875 -11.1875 L 18.574219 -10.851562 C 18.480469 -10.429688 18.292969 -10.058594 18.007812 -9.738281 C 17.757812 -9.453125 17.441406 -9.222656 17.0625 -9.054688 C 16.507812 -8.804688 15.808594 -8.679688 14.957031 -8.679688 L 8.335938 -8.679688 L 9.21875 -12.84375 Z M 11.128906 -6.78125 L 10.554688 -4.207031 L 9.027344 -4.546875 L 9.027344 -6.113281 L 13.785156 -6.113281 C 14.25 -6.113281 14.574219 -6.152344 14.75 -6.234375 C 14.753906 -6.238281 14.757812 -6.238281 14.757812 -6.238281 C 14.753906 -6.238281 14.75 -6.234375 14.742188 -6.230469 C 14.71875 -6.210938 14.695312 -6.1875 14.671875 -6.160156 C 14.605469 -6.082031 14.5625 -6 14.542969 -5.90625 L 14.59375 -6.140625 C 14.578125 -6.0625 14.589844 -5.964844 14.632812 -5.847656 C 14.691406 -5.691406 14.78125 -5.574219 14.902344 -5.492188 C 14.914062 -5.484375 14.925781 -5.480469 14.933594 -5.472656 L 14.933594 -5.476562 C 14.902344 -5.484375 14.863281 -5.496094 14.8125 -5.507812 C 14.648438 -5.539062 14.4375 -5.554688 14.175781 -5.554688 L 9.601562 -5.554688 L 9.601562 -7.121094 Z M 8.347656 -8.6875 L 14.175781 -8.6875 C 15.222656 -8.6875 16.039062 -8.492188 16.625 -8.105469 C 17.074219 -7.8125 17.386719 -7.425781 17.566406 -6.949219 C 17.730469 -6.507812 17.761719 -6.035156 17.660156 -5.527344 L 17.617188 -5.304688 C 17.53125 -4.859375 17.339844 -4.464844 17.050781 -4.125 C 16.789062 -3.820312 16.457031 -3.574219 16.058594 -3.390625 C 15.464844 -3.121094 14.707031 -2.984375 13.785156 -2.984375 L 7.074219 -2.984375 L 8.074219 -7.460938 Z M 8.347656 -8.6875 "/></g></g></g><g fill="#000000" fill-opacity="1"><g transform="translate(163.604671, 216.762115)"><g><path d="M 19.550781 1.566406 L -1.726562 1.566406 L 2.570312 -18.632812 L 24.855469 -18.632812 L 23.207031 -10.816406 L 10.910156 -10.816406 L 10.910156 -12.382812 L 12.445312 -12.0625 L 12.054688 -10.179688 L 10.519531 -10.5 L 10.519531 -12.0625 L 22.46875 -12.0625 L 21.023438 -5.257812 L 9.742188 -5.257812 L 9.742188 -6.824219 L 11.269531 -6.492188 L 10.8125 -4.355469 L 9.28125 -4.6875 L 9.28125 -6.25 L 22.46875 -6.25 L 20.820312 1.566406 Z M 19.550781 -1.566406 L 19.550781 0 L 18.019531 -0.324219 L 19.007812 -5.007812 L 20.539062 -4.6875 L 20.539062 -3.121094 L 7.34375 -3.121094 L 8.476562 -8.386719 L 19.757812 -8.386719 L 19.757812 -6.824219 L 18.226562 -7.148438 L 19.007812 -10.824219 L 20.539062 -10.5 L 20.539062 -8.933594 L 8.597656 -8.933594 L 9.636719 -13.949219 L 21.9375 -13.949219 L 21.9375 -12.382812 L 20.40625 -12.703125 L 21.394531 -17.390625 L 22.925781 -17.070312 L 22.925781 -15.503906 L 3.835938 -15.503906 L 3.835938 -17.070312 L 5.367188 -16.742188 L 1.738281 0.324219 L 0.207031 0 L 0.207031 -1.566406 Z M 19.550781 -1.566406 "/></g></g></g><g fill="#000000" fill-opacity="1"><g transform="translate(184.391192, 216.762115)"><g><path d="M 8.292969 1.566406 L -1.726562 1.566406 L 2.570312 -18.632812 L 16.886719 -18.632812 C 19.332031 -18.632812 21.277344 -18.351562 22.714844 -17.792969 C 24.339844 -17.15625 25.460938 -16.238281 26.078125 -15.039062 C 26.679688 -13.859375 26.832031 -12.539062 26.527344 -11.074219 L 26.476562 -10.832031 L 26.472656 -10.808594 C 26.167969 -9.503906 25.464844 -8.367188 24.363281 -7.394531 C 23.3125 -6.464844 21.957031 -5.820312 20.300781 -5.453125 L 19.964844 -6.984375 L 21.527344 -6.984375 L 21.527344 -6.914062 L 19.964844 -6.914062 L 20.402344 -8.417969 C 21.207031 -8.179688 21.863281 -7.878906 22.363281 -7.507812 C 22.992188 -7.042969 23.425781 -6.414062 23.675781 -5.621094 C 23.867188 -5.003906 23.964844 -4.210938 23.964844 -3.238281 L 22.398438 -3.238281 L 23.960938 -3.289062 L 23.988281 -2.550781 L 23.988281 -2.527344 C 23.988281 -2.058594 24.003906 -1.671875 24.035156 -1.355469 C 24.070312 -1.027344 24.121094 -0.667969 24.191406 -0.273438 L 24.519531 1.566406 L 13.453125 1.566406 L 13.128906 0.429688 C 13.035156 0.109375 12.976562 -0.277344 12.945312 -0.734375 C 12.917969 -1.125 12.914062 -1.652344 12.929688 -2.3125 L 14.496094 -2.273438 L 12.929688 -2.273438 L 12.929688 -3.007812 C 12.929688 -3.023438 12.929688 -3.035156 12.929688 -3.035156 C 12.933594 -3.019531 12.9375 -3 12.949219 -2.980469 C 12.976562 -2.921875 13.007812 -2.878906 13.050781 -2.847656 C 13.085938 -2.824219 13.109375 -2.808594 13.121094 -2.804688 C 13.082031 -2.820312 13.023438 -2.832031 12.949219 -2.847656 C 12.71875 -2.890625 12.40625 -2.914062 12.015625 -2.914062 L 9.234375 -2.914062 L 9.234375 -4.480469 L 10.765625 -4.15625 L 9.5625 1.566406 Z M 8.292969 -1.566406 L 8.292969 0 L 6.761719 -0.320312 L 7.964844 -6.042969 L 12.015625 -6.042969 C 12.605469 -6.042969 13.113281 -6.003906 13.539062 -5.921875 C 14.105469 -5.8125 14.566406 -5.625 14.929688 -5.351562 C 15.308594 -5.070312 15.59375 -4.714844 15.789062 -4.296875 C 15.96875 -3.90625 16.0625 -3.476562 16.0625 -3.007812 L 16.0625 -2.253906 L 16.058594 -2.234375 C 16.046875 -1.671875 16.050781 -1.238281 16.070312 -0.941406 C 16.085938 -0.707031 16.109375 -0.539062 16.136719 -0.429688 L 14.632812 0 L 14.632812 -1.566406 L 22.652344 -1.566406 L 22.652344 0 L 21.109375 0.273438 C 21.027344 -0.191406 20.964844 -0.628906 20.921875 -1.03125 C 20.878906 -1.453125 20.855469 -1.953125 20.855469 -2.527344 L 22.421875 -2.527344 L 20.855469 -2.476562 L 20.832031 -3.214844 L 20.832031 -3.238281 C 20.832031 -3.890625 20.785156 -4.375 20.6875 -4.691406 C 20.640625 -4.832031 20.582031 -4.933594 20.503906 -4.988281 C 20.300781 -5.140625 19.972656 -5.28125 19.523438 -5.414062 L 18.398438 -5.742188 L 18.398438 -8.242188 L 19.628906 -8.511719 C 20.757812 -8.761719 21.644531 -9.171875 22.292969 -9.742188 C 22.894531 -10.273438 23.269531 -10.867188 23.425781 -11.523438 L 24.949219 -11.164062 L 23.414062 -11.472656 L 23.460938 -11.714844 C 23.617188 -12.453125 23.558594 -13.085938 23.292969 -13.609375 C 23.035156 -14.105469 22.464844 -14.527344 21.578125 -14.875 C 20.503906 -15.292969 18.941406 -15.503906 16.886719 -15.503906 L 3.835938 -15.503906 L 3.835938 -17.070312 L 5.367188 -16.742188 L 1.738281 0.324219 L 0.207031 0 L 0.207031 -1.566406 Z M 12.417969 -11.914062 L 11.683594 -8.511719 L 10.152344 -8.84375 L 10.152344 -10.410156 L 14.128906 -10.410156 C 14.582031 -10.410156 14.914062 -10.476562 15.117188 -10.613281 C 15.226562 -10.683594 15.289062 -10.761719 15.308594 -10.847656 L 15.351562 -11.058594 C 15.347656 -11.054688 15.347656 -11.054688 15.347656 -11.058594 C 15.347656 -11.058594 15.347656 -11.054688 15.347656 -11.046875 C 15.351562 -11.007812 15.359375 -10.964844 15.375 -10.917969 C 15.417969 -10.785156 15.488281 -10.683594 15.585938 -10.613281 C 15.597656 -10.605469 15.609375 -10.597656 15.617188 -10.589844 C 15.589844 -10.601562 15.554688 -10.613281 15.507812 -10.625 C 15.34375 -10.660156 15.128906 -10.679688 14.863281 -10.679688 L 10.890625 -10.679688 L 10.890625 -12.246094 Z M 9.625 -13.808594 L 14.863281 -13.808594 C 15.972656 -13.808594 16.832031 -13.582031 17.445312 -13.128906 C 17.882812 -12.808594 18.183594 -12.394531 18.347656 -11.890625 C 18.492188 -11.453125 18.515625 -10.96875 18.417969 -10.445312 L 18.371094 -10.195312 C 18.171875 -9.269531 17.664062 -8.535156 16.835938 -7.996094 C 16.109375 -7.519531 15.207031 -7.277344 14.128906 -7.277344 L 8.214844 -7.277344 L 9.359375 -12.574219 Z M 9.625 -13.808594 "/></g></g></g><g fill="#000000" fill-opacity="1"><g transform="translate(208.140691, 216.762115)"><g><path d="M 12.933594 1.566406 L -1.726562 1.566406 L 2.570312 -18.632812 L 16.105469 -18.632812 C 18.941406 -18.632812 21.25 -18.210938 23.03125 -17.371094 C 24.945312 -16.464844 26.277344 -15.195312 27.027344 -13.5625 C 27.761719 -11.960938 27.914062 -10.171875 27.488281 -8.195312 L 27.449219 -7.984375 C 27.183594 -6.683594 26.722656 -5.460938 26.0625 -4.316406 C 25.382812 -3.140625 24.453125 -2.105469 23.273438 -1.210938 C 22.105469 -0.324219 20.660156 0.359375 18.929688 0.851562 C 17.253906 1.328125 15.253906 1.566406 12.933594 1.566406 Z M 12.933594 -1.566406 C 14.964844 -1.566406 16.679688 -1.761719 18.078125 -2.160156 C 19.425781 -2.542969 20.53125 -3.058594 21.382812 -3.707031 C 22.226562 -4.34375 22.882812 -5.070312 23.351562 -5.882812 C 23.839844 -6.730469 24.183594 -7.636719 24.378906 -8.601562 L 24.429688 -8.851562 C 24.707031 -10.152344 24.625 -11.285156 24.179688 -12.257812 C 23.75 -13.199219 22.921875 -13.960938 21.695312 -14.539062 C 20.335938 -15.183594 18.472656 -15.503906 16.105469 -15.503906 L 3.835938 -15.503906 L 3.835938 -17.070312 L 5.367188 -16.742188 L 1.738281 0.324219 L 0.207031 0 L 0.207031 -1.566406 Z M 12.417969 -11.917969 L 10.835938 -4.519531 L 9.304688 -4.847656 L 9.304688 -6.414062 L 12.542969 -6.414062 C 13.667969 -6.414062 14.550781 -6.613281 15.195312 -7.011719 C 15.710938 -7.335938 16.0625 -7.945312 16.246094 -8.839844 L 16.292969 -9.058594 C 16.378906 -9.460938 16.394531 -9.773438 16.34375 -9.996094 C 16.324219 -10.09375 16.28125 -10.167969 16.226562 -10.21875 C 16.074219 -10.34375 15.851562 -10.445312 15.554688 -10.523438 C 15.164062 -10.628906 14.679688 -10.679688 14.105469 -10.679688 L 10.890625 -10.679688 L 10.890625 -12.246094 Z M 9.625 -13.808594 L 14.105469 -13.808594 C 15.910156 -13.808594 17.285156 -13.414062 18.234375 -12.617188 C 18.835938 -12.113281 19.222656 -11.46875 19.398438 -10.679688 C 19.550781 -10.011719 19.535156 -9.269531 19.363281 -8.445312 L 19.3125 -8.207031 C 18.949219 -6.4375 18.125 -5.152344 16.851562 -4.359375 C 15.703125 -3.640625 14.265625 -3.28125 12.542969 -3.28125 L 7.367188 -3.28125 L 9.359375 -12.574219 Z M 9.625 -13.808594 "/></g></g></g><g fill="#000000" fill-opacity="1"><g transform="translate(233.383162, 216.762115)"><g><path d="M 11.257812 2.070312 C 8.917969 2.070312 6.976562 1.871094 5.441406 1.46875 C 3.753906 1.027344 2.445312 0.339844 1.519531 -0.597656 C 0.546875 -1.578125 -0.0390625 -2.785156 -0.242188 -4.214844 C -0.417969 -5.484375 -0.335938 -6.929688 0.0078125 -8.550781 L 2.15625 -18.632812 L 13.417969 -18.632812 L 11.109375 -7.71875 C 11.03125 -7.351562 11.007812 -7.054688 11.039062 -6.835938 C 11.054688 -6.730469 11.078125 -6.660156 11.113281 -6.617188 C 11.160156 -6.566406 11.253906 -6.515625 11.390625 -6.46875 C 11.644531 -6.386719 11.984375 -6.34375 12.40625 -6.34375 C 13.203125 -6.34375 13.804688 -6.503906 14.207031 -6.828125 C 14.609375 -7.148438 14.882812 -7.648438 15.035156 -8.332031 L 17.226562 -18.632812 L 28.515625 -18.632812 L 26.203125 -7.828125 C 25.878906 -6.285156 25.382812 -4.90625 24.707031 -3.695312 C 23.996094 -2.417969 23.03125 -1.34375 21.816406 -0.472656 C 20.625 0.378906 19.144531 1.019531 17.367188 1.453125 C 15.671875 1.863281 13.632812 2.070312 11.257812 2.070312 Z M 11.257812 -1.058594 C 13.382812 -1.058594 15.175781 -1.238281 16.628906 -1.589844 C 18.011719 -1.925781 19.132812 -2.402344 19.992188 -3.019531 C 20.828125 -3.617188 21.488281 -4.351562 21.972656 -5.21875 C 22.492188 -6.152344 22.882812 -7.238281 23.140625 -8.484375 L 25.046875 -17.394531 L 26.578125 -17.070312 L 26.578125 -15.503906 L 18.492188 -15.503906 L 18.492188 -17.070312 L 20.023438 -16.742188 L 18.089844 -7.65625 C 17.78125 -6.257812 17.140625 -5.164062 16.164062 -4.382812 C 15.1875 -3.601562 13.933594 -3.214844 12.40625 -3.214844 C 10.75 -3.214844 9.53125 -3.664062 8.746094 -4.570312 C 7.933594 -5.507812 7.699219 -6.773438 8.046875 -8.363281 L 9.953125 -17.390625 L 11.484375 -17.070312 L 11.484375 -15.503906 L 3.421875 -15.503906 L 3.421875 -17.070312 L 4.953125 -16.742188 L 3.070312 -7.898438 C 2.800781 -6.640625 2.730469 -5.558594 2.859375 -4.652344 C 2.964844 -3.90625 3.257812 -3.289062 3.742188 -2.800781 C 4.269531 -2.269531 5.097656 -1.855469 6.230469 -1.558594 C 7.507812 -1.226562 9.183594 -1.058594 11.257812 -1.058594 Z M 11.257812 -1.058594 "/></g></g></g><g fill="#000000" fill-opacity="1"><g transform="translate(258.097352, 216.762115)"><g><path d="M 11.601562 2.070312 C 8.765625 2.070312 6.390625 1.6875 4.476562 0.925781 C 2.390625 0.09375 0.898438 -1.160156 -0.00390625 -2.847656 C -0.902344 -4.53125 -1.105469 -6.53125 -0.613281 -8.847656 L -0.570312 -9.058594 C -0.105469 -11.230469 0.851562 -13.074219 2.304688 -14.589844 C 3.726562 -16.074219 5.53125 -17.195312 7.71875 -17.960938 C 9.839844 -18.699219 12.234375 -19.070312 14.910156 -19.070312 C 17.546875 -19.070312 19.800781 -18.722656 21.675781 -18.03125 C 23.695312 -17.285156 25.195312 -16.179688 26.179688 -14.714844 C 27.207031 -13.183594 27.546875 -11.371094 27.203125 -9.28125 L 25.660156 -9.535156 L 27.226562 -9.535156 L 27.226562 -7.945312 L 16.214844 -7.945312 L 16.214844 -9.574219 L 16.21875 -9.613281 C 16.226562 -9.796875 16.207031 -9.9375 16.160156 -10.035156 C 16.121094 -10.117188 16.046875 -10.195312 15.9375 -10.269531 C 15.515625 -10.558594 14.925781 -10.703125 14.175781 -10.703125 C 13.230469 -10.703125 12.421875 -10.484375 11.757812 -10.050781 C 11.1875 -9.679688 10.8125 -9.0625 10.628906 -8.195312 L 10.585938 -7.984375 C 10.511719 -7.628906 10.5 -7.34375 10.550781 -7.132812 C 10.582031 -7.003906 10.648438 -6.898438 10.746094 -6.808594 C 11.128906 -6.46875 11.753906 -6.296875 12.613281 -6.296875 C 13.445312 -6.296875 14.191406 -6.464844 14.847656 -6.800781 C 15.359375 -7.0625 15.707031 -7.457031 15.890625 -7.984375 L 17.367188 -7.464844 L 15.847656 -7.84375 L 16.167969 -9.125 L 27.25 -9.125 L 26.738281 -7.066406 L 26.730469 -7.046875 C 26.195312 -5.109375 25.175781 -3.445312 23.679688 -2.058594 C 22.238281 -0.71875 20.472656 0.308594 18.378906 1.023438 C 16.332031 1.722656 14.070312 2.070312 11.601562 2.070312 Z M 11.601562 -1.058594 C 13.726562 -1.058594 15.648438 -1.351562 17.367188 -1.941406 C 19.039062 -2.511719 20.433594 -3.316406 21.550781 -4.351562 C 22.613281 -5.335938 23.335938 -6.515625 23.714844 -7.886719 L 25.222656 -7.464844 L 23.707031 -7.84375 L 23.726562 -7.9375 L 25.246094 -7.558594 L 25.246094 -5.992188 L 17.390625 -5.992188 L 17.390625 -7.558594 L 18.910156 -7.179688 L 18.867188 -7.015625 L 18.84375 -6.949219 C 18.386719 -5.636719 17.53125 -4.660156 16.277344 -4.015625 C 15.171875 -3.449219 13.953125 -3.167969 12.613281 -3.167969 C 10.960938 -3.167969 9.644531 -3.601562 8.667969 -4.46875 C 8.082031 -4.988281 7.699219 -5.625 7.511719 -6.382812 C 7.34375 -7.054688 7.347656 -7.796875 7.515625 -8.601562 L 7.566406 -8.851562 C 7.933594 -10.558594 8.757812 -11.832031 10.042969 -12.671875 C 11.230469 -13.445312 12.609375 -13.832031 14.175781 -13.832031 C 15.566406 -13.832031 16.738281 -13.507812 17.695312 -12.863281 C 18.273438 -12.46875 18.707031 -11.976562 18.988281 -11.378906 C 19.261719 -10.800781 19.378906 -10.160156 19.34375 -9.453125 L 17.78125 -9.535156 L 19.347656 -9.535156 L 19.347656 -9.511719 L 17.78125 -9.511719 L 17.78125 -11.074219 L 25.660156 -11.074219 L 25.660156 -9.511719 L 24.09375 -9.511719 L 24.09375 -9.660156 L 24.117188 -9.785156 C 24.324219 -11.0625 24.144531 -12.125 23.578125 -12.96875 C 22.972656 -13.875 21.976562 -14.585938 20.59375 -15.09375 C 19.066406 -15.65625 17.171875 -15.941406 14.910156 -15.941406 C 12.589844 -15.941406 10.535156 -15.628906 8.75 -15.003906 C 7.035156 -14.40625 5.640625 -13.546875 4.5625 -12.425781 C 3.519531 -11.335938 2.832031 -10.011719 2.5 -8.445312 L 2.449219 -8.199219 C 2.117188 -6.625 2.21875 -5.332031 2.757812 -4.320312 C 3.300781 -3.308594 4.257812 -2.53125 5.632812 -1.984375 C 7.175781 -1.367188 9.167969 -1.058594 11.601562 -1.058594 Z M 11.601562 -1.058594 "/></g></g></g><g fill="#000000" fill-opacity="1"><g transform="translate(282.834521, 216.762115)"><g><path d="M 8.292969 1.566406 L -1.726562 1.566406 L 2.570312 -18.632812 L 13.863281 -18.632812 L 12.144531 -10.671875 L 10.613281 -11.003906 L 10.613281 -12.570312 L 12.796875 -12.570312 L 12.796875 -11.003906 L 11.527344 -11.921875 L 16.382812 -18.632812 L 29.53125 -18.632812 L 20.476562 -7.773438 L 19.273438 -8.777344 L 20.828125 -8.582031 L 20.804688 -8.398438 L 19.25 -8.589844 L 20.664062 -9.265625 L 25.847656 1.566406 L 13.460938 1.566406 L 10.585938 -5.570312 L 12.039062 -6.15625 L 12.039062 -4.589844 L 9.601562 -4.589844 L 9.601562 -6.15625 L 11.132812 -5.832031 L 9.558594 1.566406 Z M 8.292969 -1.566406 L 8.292969 0 L 6.761719 -0.324219 L 8.335938 -7.722656 L 13.09375 -7.722656 L 15.96875 -0.585938 L 14.519531 0 L 14.519531 -1.566406 L 23.363281 -1.566406 L 23.363281 0 L 21.953125 0.675781 L 17.640625 -8.332031 L 17.777344 -9.425781 L 24.988281 -18.070312 L 26.1875 -17.070312 L 26.1875 -15.503906 L 17.183594 -15.503906 L 17.183594 -17.070312 L 18.453125 -16.152344 L 13.59375 -9.4375 L 8.675781 -9.4375 L 10.394531 -17.398438 L 11.921875 -17.070312 L 11.921875 -15.503906 L 3.835938 -15.503906 L 3.835938 -17.070312 L 5.367188 -16.742188 L 1.738281 0.324219 L 0.207031 0 L 0.207031 -1.566406 Z M 8.292969 -1.566406 "/></g></g></g><g fill="#fbd502" fill-opacity="1"><g transform="translate(67.13666, 216.762115)"><g><path d="M 8.296875 0 L 0.203125 0 L 3.828125 -17.0625 L 16.875 -17.0625 C 19.132812 -17.0625 20.890625 -16.816406 22.140625 -16.328125 C 23.398438 -15.835938 24.242188 -15.164062 24.671875 -14.3125 C 25.109375 -13.46875 25.210938 -12.492188 24.984375 -11.390625 L 24.9375 -11.15625 C 24.707031 -10.175781 24.164062 -9.3125 23.3125 -8.5625 C 22.46875 -7.8125 21.347656 -7.285156 19.953125 -6.984375 L 19.953125 -6.90625 C 20.585938 -6.726562 21.078125 -6.507812 21.421875 -6.25 C 21.773438 -5.988281 22.023438 -5.625 22.171875 -5.15625 C 22.316406 -4.6875 22.390625 -4.046875 22.390625 -3.234375 L 22.421875 -2.53125 C 22.421875 -2.007812 22.4375 -1.5625 22.46875 -1.1875 C 22.507812 -0.820312 22.566406 -0.425781 22.640625 0 L 14.625 0 C 14.570312 -0.21875 14.53125 -0.5 14.5 -0.84375 C 14.476562 -1.1875 14.476562 -1.664062 14.5 -2.28125 L 14.5 -3.015625 C 14.5 -3.484375 14.328125 -3.84375 13.984375 -4.09375 C 13.648438 -4.351562 12.992188 -4.484375 12.015625 -4.484375 L 9.234375 -4.484375 Z M 10.890625 -12.25 L 10.15625 -8.84375 L 14.125 -8.84375 C 14.894531 -8.84375 15.507812 -8.992188 15.96875 -9.296875 C 16.4375 -9.609375 16.726562 -10.015625 16.84375 -10.515625 L 16.875 -10.75 C 17.0625 -11.75 16.390625 -12.25 14.859375 -12.25 Z M 10.890625 -12.25 "/></g></g></g><g fill="#fbd502" fill-opacity="1"><g transform="translate(90.886159, 216.762115)"><g><path d="M 11.25 0.5 C 9.050781 0.5 7.242188 0.316406 5.828125 -0.046875 C 4.421875 -0.410156 3.351562 -0.957031 2.625 -1.6875 C 1.894531 -2.425781 1.453125 -3.335938 1.296875 -4.421875 C 1.148438 -5.515625 1.226562 -6.78125 1.53125 -8.21875 L 3.421875 -17.0625 L 11.484375 -17.0625 L 9.578125 -8.046875 C 9.097656 -5.867188 10.039062 -4.78125 12.40625 -4.78125 C 13.570312 -4.78125 14.5 -5.054688 15.1875 -5.609375 C 15.875 -6.160156 16.332031 -6.957031 16.5625 -8 L 18.484375 -17.0625 L 26.578125 -17.0625 L 24.671875 -8.15625 C 24.378906 -6.757812 23.929688 -5.523438 23.328125 -4.453125 C 22.734375 -3.378906 21.921875 -2.472656 20.890625 -1.734375 C 19.867188 -1.003906 18.566406 -0.445312 16.984375 -0.0625 C 15.410156 0.3125 13.5 0.5 11.25 0.5 Z M 11.25 0.5 "/></g></g></g><g fill="#fbd502" fill-opacity="1"><g transform="translate(115.600348, 216.762115)"><g><path d="M 14.609375 0 L 0.203125 0 L 3.828125 -17.0625 L 17.984375 -17.0625 C 19.472656 -17.0625 20.765625 -16.921875 21.859375 -16.640625 C 22.953125 -16.367188 23.765625 -15.921875 24.296875 -15.296875 C 24.835938 -14.671875 25 -13.835938 24.78125 -12.796875 L 24.734375 -12.5625 C 24.523438 -11.539062 24 -10.75 23.15625 -10.1875 C 22.320312 -9.625 21.140625 -9.273438 19.609375 -9.140625 L 19.609375 -9.046875 C 21.160156 -8.867188 22.320312 -8.410156 23.09375 -7.671875 C 23.863281 -6.929688 24.128906 -5.953125 23.890625 -4.734375 L 23.84375 -4.5 C 23.5625 -3.289062 22.984375 -2.359375 22.109375 -1.703125 C 21.242188 -1.054688 20.160156 -0.609375 18.859375 -0.359375 C 17.566406 -0.117188 16.148438 0 14.609375 0 Z M 10.75 -12.515625 L 10.265625 -10.25 L 14.953125 -10.25 C 16.210938 -10.25 16.910156 -10.5625 17.046875 -11.1875 L 17.09375 -11.375 C 17.238281 -12.132812 16.738281 -12.515625 15.59375 -12.515625 Z M 9.59375 -7.125 L 9.03125 -4.546875 L 13.78125 -4.546875 C 15.175781 -4.546875 15.941406 -4.898438 16.078125 -5.609375 L 16.125 -5.828125 C 16.289062 -6.691406 15.640625 -7.125 14.171875 -7.125 Z M 9.59375 -7.125 "/></g></g></g><g fill="#fbd502" fill-opacity="1"><g transform="translate(139.60251, 216.762115)"><g><path d="M 14.609375 0 L 0.203125 0 L 3.828125 -17.0625 L 17.984375 -17.0625 C 19.472656 -17.0625 20.765625 -16.921875 21.859375 -16.640625 C 22.953125 -16.367188 23.765625 -15.921875 24.296875 -15.296875 C 24.835938 -14.671875 25 -13.835938 24.78125 -12.796875 L 24.734375 -12.5625 C 24.523438 -11.539062 24 -10.75 23.15625 -10.1875 C 22.320312 -9.625 21.140625 -9.273438 19.609375 -9.140625 L 19.609375 -9.046875 C 21.160156 -8.867188 22.320312 -8.410156 23.09375 -7.671875 C 23.863281 -6.929688 24.128906 -5.953125 23.890625 -4.734375 L 23.84375 -4.5 C 23.5625 -3.289062 22.984375 -2.359375 22.109375 -1.703125 C 21.242188 -1.054688 20.160156 -0.609375 18.859375 -0.359375 C 17.566406 -0.117188 16.148438 0 14.609375 0 Z M 10.75 -12.515625 L 10.265625 -10.25 L 14.953125 -10.25 C 16.210938 -10.25 16.910156 -10.5625 17.046875 -11.1875 L 17.09375 -11.375 C 17.238281 -12.132812 16.738281 -12.515625 15.59375 -12.515625 Z M 9.59375 -7.125 L 9.03125 -4.546875 L 13.78125 -4.546875 C 15.175781 -4.546875 15.941406 -4.898438 16.078125 -5.609375 L 16.125 -5.828125 C 16.289062 -6.691406 15.640625 -7.125 14.171875 -7.125 Z M 9.59375 -7.125 "/></g></g></g><g fill="#fbd502" fill-opacity="1"><g transform="translate(163.604671, 216.762115)"><g><path d="M 19.546875 0 L 0.203125 0 L 3.828125 -17.0625 L 22.921875 -17.0625 L 21.9375 -12.375 L 10.90625 -12.375 L 10.515625 -10.5 L 20.53125 -10.5 L 19.75 -6.828125 L 9.734375 -6.828125 L 9.28125 -4.6875 L 20.53125 -4.6875 Z M 19.546875 0 "/></g></g></g><g fill="#fbd502" fill-opacity="1"><g transform="translate(184.391192, 216.762115)"><g><path d="M 8.296875 0 L 0.203125 0 L 3.828125 -17.0625 L 16.875 -17.0625 C 19.132812 -17.0625 20.890625 -16.816406 22.140625 -16.328125 C 23.398438 -15.835938 24.242188 -15.164062 24.671875 -14.3125 C 25.109375 -13.46875 25.210938 -12.492188 24.984375 -11.390625 L 24.9375 -11.15625 C 24.707031 -10.175781 24.164062 -9.3125 23.3125 -8.5625 C 22.46875 -7.8125 21.347656 -7.285156 19.953125 -6.984375 L 19.953125 -6.90625 C 20.585938 -6.726562 21.078125 -6.507812 21.421875 -6.25 C 21.773438 -5.988281 22.023438 -5.625 22.171875 -5.15625 C 22.316406 -4.6875 22.390625 -4.046875 22.390625 -3.234375 L 22.421875 -2.53125 C 22.421875 -2.007812 22.4375 -1.5625 22.46875 -1.1875 C 22.507812 -0.820312 22.566406 -0.425781 22.640625 0 L 14.625 0 C 14.570312 -0.21875 14.53125 -0.5 14.5 -0.84375 C 14.476562 -1.1875 14.476562 -1.664062 14.5 -2.28125 L 14.5 -3.015625 C 14.5 -3.484375 14.328125 -3.84375 13.984375 -4.09375 C 13.648438 -4.351562 12.992188 -4.484375 12.015625 -4.484375 L 9.234375 -4.484375 Z M 10.890625 -12.25 L 10.15625 -8.84375 L 14.125 -8.84375 C 14.894531 -8.84375 15.507812 -8.992188 15.96875 -9.296875 C 16.4375 -9.609375 16.726562 -10.015625 16.84375 -10.515625 L 16.875 -10.75 C 17.0625 -11.75 16.390625 -12.25 14.859375 -12.25 Z M 10.890625 -12.25 "/></g></g></g><g fill="#fbd502" fill-opacity="1"><g transform="translate(208.140691, 216.762115)"><g><path d="M 12.9375 0 L 0.203125 0 L 3.828125 -17.0625 L 16.09375 -17.0625 C 18.695312 -17.0625 20.785156 -16.691406 22.359375 -15.953125 C 23.929688 -15.210938 25.007812 -14.195312 25.59375 -12.90625 C 26.1875 -11.625 26.304688 -10.160156 25.953125 -8.515625 L 25.90625 -8.296875 C 25.675781 -7.160156 25.273438 -6.09375 24.703125 -5.09375 C 24.128906 -4.101562 23.335938 -3.222656 22.328125 -2.453125 C 21.316406 -1.691406 20.039062 -1.09375 18.5 -0.65625 C 16.957031 -0.21875 15.101562 0 12.9375 0 Z M 10.890625 -12.25 L 9.296875 -4.84375 L 12.546875 -4.84375 C 13.960938 -4.84375 15.117188 -5.117188 16.015625 -5.671875 C 16.910156 -6.234375 17.5 -7.179688 17.78125 -8.515625 L 17.828125 -8.75 C 18.085938 -9.976562 17.882812 -10.867188 17.21875 -11.421875 C 16.5625 -11.972656 15.523438 -12.25 14.109375 -12.25 Z M 10.890625 -12.25 "/></g></g></g><g fill="#fbd502" fill-opacity="1"><g transform="translate(233.383162, 216.762115)"><g><path d="M 11.25 0.5 C 9.050781 0.5 7.242188 0.316406 5.828125 -0.046875 C 4.421875 -0.410156 3.351562 -0.957031 2.625 -1.6875 C 1.894531 -2.425781 1.453125 -3.335938 1.296875 -4.421875 C 1.148438 -5.515625 1.226562 -6.78125 1.53125 -8.21875 L 3.421875 -17.0625 L 11.484375 -17.0625 L 9.578125 -8.046875 C 9.097656 -5.867188 10.039062 -4.78125 12.40625 -4.78125 C 13.570312 -4.78125 14.5 -5.054688 15.1875 -5.609375 C 15.875 -6.160156 16.332031 -6.957031 16.5625 -8 L 18.484375 -17.0625 L 26.578125 -17.0625 L 24.671875 -8.15625 C 24.378906 -6.757812 23.929688 -5.523438 23.328125 -4.453125 C 22.734375 -3.378906 21.921875 -2.472656 20.890625 -1.734375 C 19.867188 -1.003906 18.566406 -0.445312 16.984375 -0.0625 C 15.410156 0.3125 13.5 0.5 11.25 0.5 Z M 11.25 0.5 "/></g></g></g><g fill="#fbd502" fill-opacity="1"><g transform="translate(258.097352, 216.762115)"><g><path d="M 11.59375 0.5 C 8.96875 0.5 6.785156 0.15625 5.046875 -0.53125 C 3.316406 -1.21875 2.09375 -2.234375 1.375 -3.578125 C 0.65625 -4.929688 0.503906 -6.578125 0.921875 -8.515625 L 0.96875 -8.75 C 1.363281 -10.613281 2.1875 -12.195312 3.4375 -13.5 C 4.6875 -14.800781 6.285156 -15.789062 8.234375 -16.46875 C 10.179688 -17.15625 12.40625 -17.5 14.90625 -17.5 C 17.351562 -17.5 19.425781 -17.1875 21.125 -16.5625 C 22.832031 -15.9375 24.082031 -15.03125 24.875 -13.84375 C 25.664062 -12.65625 25.925781 -11.21875 25.65625 -9.53125 L 25.65625 -9.515625 L 17.78125 -9.515625 L 17.78125 -9.53125 C 17.820312 -10.414062 17.5 -11.09375 16.8125 -11.5625 C 16.125 -12.03125 15.242188 -12.265625 14.171875 -12.265625 C 12.910156 -12.265625 11.816406 -11.960938 10.890625 -11.359375 C 9.972656 -10.753906 9.375 -9.804688 9.09375 -8.515625 L 9.046875 -8.296875 C 8.804688 -7.128906 9.023438 -6.242188 9.703125 -5.640625 C 10.378906 -5.035156 11.347656 -4.734375 12.609375 -4.734375 C 13.691406 -4.734375 14.671875 -4.957031 15.546875 -5.40625 C 16.429688 -5.863281 17.035156 -6.550781 17.359375 -7.46875 L 17.390625 -7.5625 L 25.25 -7.5625 L 25.21875 -7.46875 C 24.757812 -5.8125 23.890625 -4.390625 22.609375 -3.203125 C 21.328125 -2.015625 19.742188 -1.097656 17.859375 -0.453125 C 15.984375 0.179688 13.894531 0.5 11.59375 0.5 Z M 11.59375 0.5 "/></g></g></g><g fill="#fbd502" fill-opacity="1"><g transform="translate(282.834521, 216.762115)"><g><path d="M 8.296875 0 L 0.203125 0 L 3.828125 -17.0625 L 11.921875 -17.0625 L 10.609375 -11 L 12.796875 -11 L 17.1875 -17.0625 L 26.1875 -17.0625 L 19.265625 -8.78125 L 19.25 -8.59375 L 23.359375 0 L 14.515625 0 L 12.03125 -6.15625 L 9.59375 -6.15625 Z M 8.296875 0 "/></g></g></g></svg>